<svg width="362" height="362" viewBox="0 0 362 362" fill="none" xmlns="http://www.w3.org/2000/svg">
<path d="M181 0.369141C141.798 0.36914 103.662 13.1315 72.3572 36.7269C41.0519 60.3223 18.2792 93.468 7.48177 131.153L57.5225 145.491C65.2061 118.674 81.4114 95.0867 103.689 78.2959C125.966 61.5052 153.104 52.4234 181 52.4234V0.369141Z" fill="#F06500"/>
<path d="M7.32076 131.719C-1.18232 161.765 -1.74495 193.504 5.68786 223.833C13.1207 254.162 28.2946 282.044 49.7269 304.755L87.5847 269.027C72.3332 252.867 61.5352 233.025 56.246 211.443C50.9567 189.86 51.3571 167.275 57.408 145.893L7.32076 131.719Z" fill="#8B35E2"/>
<path d="M48.8089 303.775C77.4311 334.559 115.9 354.389 157.58 359.843L164.334 308.229C134.674 304.348 107.299 290.237 86.9314 268.33L48.8089 303.775Z" fill="#00B2FF"/>
<path d="M181 0.369141C218.367 0.369141 254.813 11.9663 285.309 33.5602C315.805 55.1542 338.847 85.6805 351.256 120.927L302.156 138.214C293.326 113.132 276.928 91.409 255.227 76.0425C233.526 60.676 207.591 52.4234 181 52.4234V0.369141Z" fill="#00E396"/>
<path d="M350.531 118.905C358.668 141.169 362.341 164.816 361.339 188.499C360.337 212.181 354.68 235.434 344.691 256.931C334.703 278.427 320.578 297.745 303.124 313.783C285.669 329.82 265.227 342.263 242.964 350.4L225.094 301.509C240.937 295.719 255.484 286.864 267.905 275.452C280.325 264.039 290.377 250.292 297.485 234.995C304.593 219.698 308.618 203.151 309.331 186.298C310.044 169.446 307.431 152.618 301.64 136.775L350.531 118.905Z" fill="#FF4560"/>
<path d="M242.838 350.446C215.563 360.392 186.292 363.612 157.507 359.834L164.282 308.222C184.766 310.911 205.595 308.62 225.005 301.542L242.838 350.446Z" fill="#FFA800"/>
<g filter="url(#filter0_d_77908_1355)">
<path d="M257.209 51.6279C257.269 50.4279 257.689 49.5039 258.469 48.8559C259.261 48.1959 260.299 47.8659 261.583 47.8659C262.459 47.8659 263.209 48.0219 263.833 48.3339C264.457 48.6339 264.925 49.0479 265.237 49.5759C265.561 50.0919 265.723 50.6799 265.723 51.3399C265.723 52.0959 265.525 52.7379 265.129 53.2659C264.745 53.7819 264.283 54.1299 263.743 54.3099V54.3819C264.439 54.5979 264.979 54.9819 265.363 55.5339C265.759 56.0859 265.957 56.7939 265.957 57.6579C265.957 58.3779 265.789 59.0199 265.453 59.5839C265.129 60.1479 264.643 60.5919 263.995 60.9159C263.359 61.2279 262.591 61.3839 261.691 61.3839C260.335 61.3839 259.231 61.0419 258.379 60.3579C257.527 59.6739 257.077 58.6659 257.029 57.3339H259.477C259.501 57.9219 259.699 58.3959 260.071 58.7559C260.455 59.1039 260.977 59.2779 261.637 59.2779C262.249 59.2779 262.717 59.1099 263.041 58.7739C263.377 58.4259 263.545 57.9819 263.545 57.4419C263.545 56.7219 263.317 56.2059 262.861 55.8939C262.405 55.5819 261.697 55.4259 260.737 55.4259H260.215V53.3559H260.737C262.441 53.3559 263.293 52.7859 263.293 51.6459C263.293 51.1299 263.137 50.7279 262.825 50.4399C262.525 50.1519 262.087 50.0079 261.511 50.0079C260.947 50.0079 260.509 50.1639 260.197 50.4759C259.897 50.7759 259.723 51.1599 259.675 51.6279H257.209ZM276.768 50.3499H270.936V53.4279C271.188 53.1159 271.548 52.8639 272.016 52.6719C272.484 52.4679 272.982 52.3659 273.51 52.3659C274.47 52.3659 275.256 52.5759 275.868 52.9959C276.48 53.4159 276.924 53.9559 277.2 54.6159C277.476 55.2639 277.614 55.9599 277.614 56.7039C277.614 58.0839 277.218 59.1939 276.426 60.0339C275.646 60.8739 274.53 61.2939 273.078 61.2939C271.71 61.2939 270.618 60.9519 269.802 60.2679C268.986 59.5839 268.524 58.6899 268.416 57.5859H270.864C270.972 58.0659 271.212 58.4499 271.584 58.7379C271.968 59.0259 272.454 59.1699 273.042 59.1699C273.75 59.1699 274.284 58.9479 274.644 58.5039C275.004 58.0599 275.184 57.4719 275.184 56.7399C275.184 55.9959 274.998 55.4319 274.626 55.0479C274.266 54.6519 273.732 54.4539 273.024 54.4539C272.52 54.4539 272.1 54.5799 271.764 54.8319C271.428 55.0839 271.188 55.4199 271.044 55.8399H268.632V48.1359H276.768V50.3499ZM279.244 51.3939C279.244 50.4819 279.508 49.7679 280.036 49.2519C280.576 48.7359 281.266 48.4779 282.106 48.4779C282.946 48.4779 283.63 48.7359 284.158 49.2519C284.698 49.7679 284.968 50.4819 284.968 51.3939C284.968 52.3179 284.698 53.0379 284.158 53.5539C283.63 54.0699 282.946 54.3279 282.106 54.3279C281.266 54.3279 280.576 54.0699 280.036 53.5539C279.508 53.0379 279.244 52.3179 279.244 51.3939ZM290.8 48.6939L283.726 61.2939H281.278L288.334 48.6939H290.8ZM282.088 49.9899C281.428 49.9899 281.098 50.4579 281.098 51.3939C281.098 52.3419 281.428 52.8159 282.088 52.8159C282.412 52.8159 282.664 52.7019 282.844 52.4739C283.024 52.2339 283.114 51.8739 283.114 51.3939C283.114 50.4579 282.772 49.9899 282.088 49.9899ZM287.146 58.5759C287.146 57.6519 287.41 56.9379 287.938 56.4339C288.478 55.9179 289.168 55.6599 290.008 55.6599C290.848 55.6599 291.526 55.9179 292.042 56.4339C292.57 56.9379 292.834 57.6519 292.834 58.5759C292.834 59.4999 292.57 60.2199 292.042 60.7359C291.526 61.2519 290.848 61.5099 290.008 61.5099C289.156 61.5099 288.466 61.2519 287.938 60.7359C287.41 60.2199 287.146 59.4999 287.146 58.5759ZM289.99 57.1719C289.306 57.1719 288.964 57.6399 288.964 58.5759C288.964 59.5239 289.306 59.9979 289.99 59.9979C290.662 59.9979 290.998 59.5239 290.998 58.5759C290.998 57.6399 290.662 57.1719 289.99 57.1719Z" fill="white"/>
</g>
<g filter="url(#filter1_d_77908_1355)">
<path d="M303.841 251.271V249.291L309.727 240.867H312.661V249.075H314.245V251.271H312.661V253.827H310.141V251.271H303.841ZM310.303 243.567L306.613 249.075H310.303V243.567ZM318.046 246.879C316.846 246.255 316.246 245.289 316.246 243.981C316.246 243.333 316.408 242.745 316.732 242.217C317.068 241.677 317.566 241.251 318.226 240.939C318.898 240.615 319.714 240.453 320.674 240.453C321.634 240.453 322.444 240.615 323.104 240.939C323.776 241.251 324.274 241.677 324.598 242.217C324.934 242.745 325.102 243.333 325.102 243.981C325.102 244.641 324.94 245.223 324.616 245.727C324.292 246.219 323.86 246.603 323.32 246.879C323.98 247.167 324.496 247.587 324.868 248.139C325.24 248.691 325.426 249.345 325.426 250.101C325.426 250.917 325.216 251.631 324.796 252.243C324.388 252.843 323.824 253.305 323.104 253.629C322.384 253.953 321.574 254.115 320.674 254.115C319.774 254.115 318.964 253.953 318.244 253.629C317.536 253.305 316.972 252.843 316.552 252.243C316.144 251.631 315.94 250.917 315.94 250.101C315.94 249.345 316.126 248.691 316.498 248.139C316.87 247.575 317.386 247.155 318.046 246.879ZM322.654 244.341C322.654 243.753 322.474 243.297 322.114 242.973C321.766 242.649 321.286 242.487 320.674 242.487C320.074 242.487 319.594 242.649 319.234 242.973C318.886 243.297 318.712 243.759 318.712 244.359C318.712 244.899 318.892 245.331 319.252 245.655C319.624 245.979 320.098 246.141 320.674 246.141C321.25 246.141 321.724 245.979 322.096 245.655C322.468 245.319 322.654 244.881 322.654 244.341ZM320.674 247.977C319.99 247.977 319.432 248.151 319 248.499C318.58 248.847 318.37 249.345 318.37 249.993C318.37 250.593 318.574 251.085 318.982 251.469C319.402 251.841 319.966 252.027 320.674 252.027C321.382 252.027 321.94 251.835 322.348 251.451C322.756 251.067 322.96 250.581 322.96 249.993C322.96 249.357 322.75 248.865 322.33 248.517C321.91 248.157 321.358 247.977 320.674 247.977ZM327.128 243.927C327.128 243.015 327.392 242.301 327.92 241.785C328.46 241.269 329.15 241.011 329.99 241.011C330.83 241.011 331.514 241.269 332.042 241.785C332.582 242.301 332.852 243.015 332.852 243.927C332.852 244.851 332.582 245.571 332.042 246.087C331.514 246.603 330.83 246.861 329.99 246.861C329.15 246.861 328.46 246.603 327.92 246.087C327.392 245.571 327.128 244.851 327.128 243.927ZM338.684 241.227L331.61 253.827H329.162L336.218 241.227H338.684ZM329.972 242.523C329.312 242.523 328.982 242.991 328.982 243.927C328.982 244.875 329.312 245.349 329.972 245.349C330.296 245.349 330.548 245.235 330.728 245.007C330.908 244.767 330.998 244.407 330.998 243.927C330.998 242.991 330.656 242.523 329.972 242.523ZM335.03 251.109C335.03 250.185 335.294 249.471 335.822 248.967C336.362 248.451 337.052 248.193 337.892 248.193C338.732 248.193 339.41 248.451 339.926 248.967C340.454 249.471 340.718 250.185 340.718 251.109C340.718 252.033 340.454 252.753 339.926 253.269C339.41 253.785 338.732 254.043 337.892 254.043C337.04 254.043 336.35 253.785 335.822 253.269C335.294 252.753 335.03 252.033 335.03 251.109ZM337.874 249.705C337.19 249.705 336.848 250.173 336.848 251.109C336.848 252.057 337.19 252.531 337.874 252.531C338.546 252.531 338.882 252.057 338.882 251.109C338.882 250.173 338.546 249.705 337.874 249.705Z" fill="white"/>
</g>
<g filter="url(#filter2_d_77908_1355)">
<path d="M183.551 338.426C184.703 337.466 185.621 336.668 186.305 336.032C186.989 335.384 187.559 334.712 188.015 334.016C188.471 333.32 188.699 332.636 188.699 331.964C188.699 331.352 188.555 330.872 188.267 330.524C187.979 330.176 187.535 330.002 186.935 330.002C186.335 330.002 185.873 330.206 185.549 330.614C185.225 331.01 185.057 331.556 185.045 332.252H182.597C182.645 330.812 183.071 329.72 183.875 328.976C184.691 328.232 185.723 327.86 186.971 327.86C188.339 327.86 189.389 328.226 190.121 328.958C190.853 329.678 191.219 330.632 191.219 331.82C191.219 332.756 190.967 333.65 190.463 334.502C189.959 335.354 189.383 336.098 188.735 336.734C188.087 337.358 187.241 338.114 186.197 339.002H191.507V341.09H182.615V339.218L183.551 338.426ZM193.095 334.538C193.095 332.462 193.467 330.836 194.211 329.66C194.967 328.484 196.215 327.896 197.955 327.896C199.695 327.896 200.937 328.484 201.681 329.66C202.437 330.836 202.815 332.462 202.815 334.538C202.815 336.626 202.437 338.264 201.681 339.452C200.937 340.64 199.695 341.234 197.955 341.234C196.215 341.234 194.967 340.64 194.211 339.452C193.467 338.264 193.095 336.626 193.095 334.538ZM200.331 334.538C200.331 333.65 200.271 332.906 200.151 332.306C200.043 331.694 199.815 331.196 199.467 330.812C199.131 330.428 198.627 330.236 197.955 330.236C197.283 330.236 196.773 330.428 196.425 330.812C196.089 331.196 195.861 331.694 195.741 332.306C195.633 332.906 195.579 333.65 195.579 334.538C195.579 335.45 195.633 336.218 195.741 336.842C195.849 337.454 196.077 337.952 196.425 338.336C196.773 338.708 197.283 338.894 197.955 338.894C198.627 338.894 199.137 338.708 199.485 338.336C199.833 337.952 200.061 337.454 200.169 336.842C200.277 336.218 200.331 335.45 200.331 334.538ZM204.444 331.37C204.444 330.458 204.708 329.744 205.236 329.228C205.776 328.712 206.466 328.454 207.306 328.454C208.146 328.454 208.83 328.712 209.358 329.228C209.898 329.744 210.168 330.458 210.168 331.37C210.168 332.294 209.898 333.014 209.358 333.53C208.83 334.046 208.146 334.304 207.306 334.304C206.466 334.304 205.776 334.046 205.236 333.53C204.708 333.014 204.444 332.294 204.444 331.37ZM216 328.67L208.926 341.27H206.478L213.534 328.67H216ZM207.288 329.966C206.628 329.966 206.298 330.434 206.298 331.37C206.298 332.318 206.628 332.792 207.288 332.792C207.612 332.792 207.864 332.678 208.044 332.45C208.224 332.21 208.314 331.85 208.314 331.37C208.314 330.434 207.972 329.966 207.288 329.966ZM212.346 338.552C212.346 337.628 212.61 336.914 213.138 336.41C213.678 335.894 214.368 335.636 215.208 335.636C216.048 335.636 216.726 335.894 217.242 336.41C217.77 336.914 218.034 337.628 218.034 338.552C218.034 339.476 217.77 340.196 217.242 340.712C216.726 341.228 216.048 341.486 215.208 341.486C214.356 341.486 213.666 341.228 213.138 340.712C212.61 340.196 212.346 339.476 212.346 338.552ZM215.19 337.148C214.506 337.148 214.164 337.616 214.164 338.552C214.164 339.5 214.506 339.974 215.19 339.974C215.862 339.974 216.198 339.5 216.198 338.552C216.198 337.616 215.862 337.148 215.19 337.148Z" fill="white"/>
</g>
<g filter="url(#filter3_d_77908_1355)">
<path d="M96.9455 319.974C98.0975 319.014 99.0155 318.216 99.6995 317.58C100.384 316.932 100.954 316.26 101.41 315.564C101.866 314.868 102.094 314.184 102.094 313.512C102.094 312.9 101.95 312.42 101.662 312.072C101.374 311.724 100.93 311.55 100.33 311.55C99.7295 311.55 99.2675 311.754 98.9435 312.162C98.6195 312.558 98.4515 313.104 98.4395 313.8H95.9915C96.0395 312.36 96.4655 311.268 97.2695 310.524C98.0855 309.78 99.1175 309.408 100.366 309.408C101.734 309.408 102.784 309.774 103.516 310.506C104.248 311.226 104.614 312.18 104.614 313.368C104.614 314.304 104.362 315.198 103.858 316.05C103.354 316.902 102.778 317.646 102.13 318.282C101.482 318.906 100.636 319.662 99.5915 320.55H104.902V322.638H96.0095V320.766L96.9455 319.974ZM108.685 315.87C107.485 315.246 106.885 314.28 106.885 312.972C106.885 312.324 107.047 311.736 107.371 311.208C107.707 310.668 108.205 310.242 108.865 309.93C109.537 309.606 110.353 309.444 111.313 309.444C112.273 309.444 113.083 309.606 113.743 309.93C114.415 310.242 114.913 310.668 115.237 311.208C115.573 311.736 115.741 312.324 115.741 312.972C115.741 313.632 115.579 314.214 115.255 314.718C114.931 315.21 114.499 315.594 113.959 315.87C114.619 316.158 115.135 316.578 115.507 317.13C115.879 317.682 116.065 318.336 116.065 319.092C116.065 319.908 115.855 320.622 115.435 321.234C115.027 321.834 114.463 322.296 113.743 322.62C113.023 322.944 112.213 323.106 111.313 323.106C110.413 323.106 109.603 322.944 108.883 322.62C108.175 322.296 107.611 321.834 107.191 321.234C106.783 320.622 106.579 319.908 106.579 319.092C106.579 318.336 106.765 317.682 107.137 317.13C107.509 316.566 108.025 316.146 108.685 315.87ZM113.293 313.332C113.293 312.744 113.113 312.288 112.753 311.964C112.405 311.64 111.925 311.478 111.313 311.478C110.713 311.478 110.233 311.64 109.873 311.964C109.525 312.288 109.351 312.75 109.351 313.35C109.351 313.89 109.531 314.322 109.891 314.646C110.263 314.97 110.737 315.132 111.313 315.132C111.889 315.132 112.363 314.97 112.735 314.646C113.107 314.31 113.293 313.872 113.293 313.332ZM111.313 316.968C110.629 316.968 110.071 317.142 109.639 317.49C109.219 317.838 109.009 318.336 109.009 318.984C109.009 319.584 109.213 320.076 109.621 320.46C110.041 320.832 110.605 321.018 111.313 321.018C112.021 321.018 112.579 320.826 112.987 320.442C113.395 320.058 113.599 319.572 113.599 318.984C113.599 318.348 113.389 317.856 112.969 317.508C112.549 317.148 111.997 316.968 111.313 316.968ZM117.768 312.918C117.768 312.006 118.032 311.292 118.56 310.776C119.1 310.26 119.79 310.002 120.63 310.002C121.47 310.002 122.154 310.26 122.682 310.776C123.222 311.292 123.492 312.006 123.492 312.918C123.492 313.842 123.222 314.562 122.682 315.078C122.154 315.594 121.47 315.852 120.63 315.852C119.79 315.852 119.1 315.594 118.56 315.078C118.032 314.562 117.768 313.842 117.768 312.918ZM129.324 310.218L122.25 322.818H119.802L126.858 310.218H129.324ZM120.612 311.514C119.952 311.514 119.622 311.982 119.622 312.918C119.622 313.866 119.952 314.34 120.612 314.34C120.936 314.34 121.188 314.226 121.368 313.998C121.548 313.758 121.638 313.398 121.638 312.918C121.638 311.982 121.296 311.514 120.612 311.514ZM125.67 320.1C125.67 319.176 125.934 318.462 126.462 317.958C127.002 317.442 127.692 317.184 128.532 317.184C129.372 317.184 130.05 317.442 130.566 317.958C131.094 318.462 131.358 319.176 131.358 320.1C131.358 321.024 131.094 321.744 130.566 322.26C130.05 322.776 129.372 323.034 128.532 323.034C127.68 323.034 126.99 322.776 126.462 322.26C125.934 321.744 125.67 321.024 125.67 320.1ZM128.514 318.696C127.83 318.696 127.488 319.164 127.488 320.1C127.488 321.048 127.83 321.522 128.514 321.522C129.186 321.522 129.522 321.048 129.522 320.1C129.522 319.164 129.186 318.696 128.514 318.696Z" fill="white"/>
</g>
<g filter="url(#filter4_d_77908_1355)">
<path d="M12.5401 209.665C12.6001 208.465 13.0201 207.541 13.8001 206.893C14.5921 206.233 15.6301 205.903 16.9141 205.903C17.7901 205.903 18.5401 206.059 19.1641 206.371C19.7881 206.671 20.2561 207.085 20.5681 207.613C20.8921 208.129 21.0541 208.717 21.0541 209.377C21.0541 210.133 20.8561 210.775 20.4601 211.303C20.0761 211.819 19.6141 212.167 19.0741 212.347V212.419C19.7701 212.635 20.3101 213.019 20.6941 213.571C21.0901 214.123 21.2881 214.831 21.2881 215.695C21.2881 216.415 21.1201 217.057 20.7841 217.621C20.4601 218.185 19.9741 218.629 19.3261 218.953C18.6901 219.265 17.9221 219.421 17.0221 219.421C15.6661 219.421 14.5621 219.079 13.7101 218.395C12.8581 217.711 12.4081 216.703 12.3601 215.371H14.8081C14.8321 215.959 15.0301 216.433 15.4021 216.793C15.7861 217.141 16.3081 217.315 16.9681 217.315C17.5801 217.315 18.0481 217.147 18.3721 216.811C18.7081 216.463 18.8761 216.019 18.8761 215.479C18.8761 214.759 18.6481 214.243 18.1921 213.931C17.7361 213.619 17.0281 213.463 16.0681 213.463H15.5461V211.393H16.0681C17.7721 211.393 18.6241 210.823 18.6241 209.683C18.6241 209.167 18.4681 208.765 18.1561 208.477C17.8561 208.189 17.4181 208.045 16.8421 208.045C16.2781 208.045 15.8401 208.201 15.5281 208.513C15.2281 208.813 15.0541 209.197 15.0061 209.665H12.5401ZM25.4755 212.383C24.2755 211.759 23.6755 210.793 23.6755 209.485C23.6755 208.837 23.8375 208.249 24.1615 207.721C24.4975 207.181 24.9955 206.755 25.6555 206.443C26.3275 206.119 27.1435 205.957 28.1035 205.957C29.0635 205.957 29.8735 206.119 30.5335 206.443C31.2055 206.755 31.7035 207.181 32.0275 207.721C32.3635 208.249 32.5315 208.837 32.5315 209.485C32.5315 210.145 32.3695 210.727 32.0455 211.231C31.7215 211.723 31.2895 212.107 30.7495 212.383C31.4095 212.671 31.9255 213.091 32.2975 213.643C32.6695 214.195 32.8555 214.849 32.8555 215.605C32.8555 216.421 32.6455 217.135 32.2255 217.747C31.8175 218.347 31.2535 218.809 30.5335 219.133C29.8135 219.457 29.0035 219.619 28.1035 219.619C27.2035 219.619 26.3935 219.457 25.6735 219.133C24.9655 218.809 24.4015 218.347 23.9815 217.747C23.5735 217.135 23.3695 216.421 23.3695 215.605C23.3695 214.849 23.5555 214.195 23.9275 213.643C24.2995 213.079 24.8155 212.659 25.4755 212.383ZM30.0835 209.845C30.0835 209.257 29.9035 208.801 29.5435 208.477C29.1955 208.153 28.7155 207.991 28.1035 207.991C27.5035 207.991 27.0235 208.153 26.6635 208.477C26.3155 208.801 26.1415 209.263 26.1415 209.863C26.1415 210.403 26.3215 210.835 26.6815 211.159C27.0535 211.483 27.5275 211.645 28.1035 211.645C28.6795 211.645 29.1535 211.483 29.5255 211.159C29.8975 210.823 30.0835 210.385 30.0835 209.845ZM28.1035 213.481C27.4195 213.481 26.8615 213.655 26.4295 214.003C26.0095 214.351 25.7995 214.849 25.7995 215.497C25.7995 216.097 26.0035 216.589 26.4115 216.973C26.8315 217.345 27.3955 217.531 28.1035 217.531C28.8115 217.531 29.3695 217.339 29.7775 216.955C30.1855 216.571 30.3895 216.085 30.3895 215.497C30.3895 214.861 30.1795 214.369 29.7595 214.021C29.3395 213.661 28.7875 213.481 28.1035 213.481ZM34.5579 209.431C34.5579 208.519 34.8219 207.805 35.3499 207.289C35.8899 206.773 36.5799 206.515 37.4199 206.515C38.2599 206.515 38.9439 206.773 39.4719 207.289C40.0119 207.805 40.2819 208.519 40.2819 209.431C40.2819 210.355 40.0119 211.075 39.4719 211.591C38.9439 212.107 38.2599 212.365 37.4199 212.365C36.5799 212.365 35.8899 212.107 35.3499 211.591C34.8219 211.075 34.5579 210.355 34.5579 209.431ZM46.1139 206.731L39.0399 219.331H36.5919L43.6479 206.731H46.1139ZM37.4019 208.027C36.7419 208.027 36.4119 208.495 36.4119 209.431C36.4119 210.379 36.7419 210.853 37.4019 210.853C37.7259 210.853 37.9779 210.739 38.1579 210.511C38.3379 210.271 38.4279 209.911 38.4279 209.431C38.4279 208.495 38.0859 208.027 37.4019 208.027ZM42.4599 216.613C42.4599 215.689 42.7239 214.975 43.2519 214.471C43.7919 213.955 44.4819 213.697 45.3219 213.697C46.1619 213.697 46.8399 213.955 47.3559 214.471C47.8839 214.975 48.1479 215.689 48.1479 216.613C48.1479 217.537 47.8839 218.257 47.3559 218.773C46.8399 219.289 46.1619 219.547 45.3219 219.547C44.4699 219.547 43.7799 219.289 43.2519 218.773C42.7239 218.257 42.4599 217.537 42.4599 216.613ZM45.3039 215.209C44.6199 215.209 44.2779 215.677 44.2779 216.613C44.2779 217.561 44.6199 218.035 45.3039 218.035C45.9759 218.035 46.3119 217.561 46.3119 216.613C46.3119 215.677 45.9759 215.209 45.3039 215.209Z" fill="white"/>
</g>
<g filter="url(#filter5_d_77908_1355)">
<path d="M70.359 61.1442V59.1642L76.245 50.7402H79.179V58.9482H80.763V61.1442H79.179V63.7002H76.659V61.1442H70.359ZM76.821 53.4402L73.131 58.9482H76.821V53.4402ZM82.3674 56.9682C82.3674 54.8922 82.7394 53.2662 83.4834 52.0902C84.2394 50.9142 85.4874 50.3262 87.2274 50.3262C88.9674 50.3262 90.2094 50.9142 90.9534 52.0902C91.7094 53.2662 92.0874 54.8922 92.0874 56.9682C92.0874 59.0562 91.7094 60.6942 90.9534 61.8822C90.2094 63.0702 88.9674 63.6642 87.2274 63.6642C85.4874 63.6642 84.2394 63.0702 83.4834 61.8822C82.7394 60.6942 82.3674 59.0562 82.3674 56.9682ZM89.6034 56.9682C89.6034 56.0802 89.5434 55.3362 89.4234 54.7362C89.3154 54.1242 89.0874 53.6262 88.7394 53.2422C88.4034 52.8582 87.8994 52.6662 87.2274 52.6662C86.5554 52.6662 86.0454 52.8582 85.6974 53.2422C85.3614 53.6262 85.1334 54.1242 85.0134 54.7362C84.9054 55.3362 84.8514 56.0802 84.8514 56.9682C84.8514 57.8802 84.9054 58.6482 85.0134 59.2722C85.1214 59.8842 85.3494 60.3822 85.6974 60.7662C86.0454 61.1382 86.5554 61.3242 87.2274 61.3242C87.8994 61.3242 88.4094 61.1382 88.7574 60.7662C89.1054 60.3822 89.3334 59.8842 89.4414 59.2722C89.5494 58.6482 89.6034 57.8802 89.6034 56.9682ZM93.7161 53.8002C93.7161 52.8882 93.9801 52.1742 94.5081 51.6582C95.0481 51.1422 95.7381 50.8842 96.5781 50.8842C97.4181 50.8842 98.1021 51.1422 98.6301 51.6582C99.1701 52.1742 99.4401 52.8882 99.4401 53.8002C99.4401 54.7242 99.1701 55.4442 98.6301 55.9602C98.1021 56.4762 97.4181 56.7342 96.5781 56.7342C95.7381 56.7342 95.0481 56.4762 94.5081 55.9602C93.9801 55.4442 93.7161 54.7242 93.7161 53.8002ZM105.272 51.1002L98.1981 63.7002H95.7501L102.806 51.1002H105.272ZM96.5601 52.3962C95.9001 52.3962 95.5701 52.8642 95.5701 53.8002C95.5701 54.7482 95.9001 55.2222 96.5601 55.2222C96.8841 55.2222 97.1361 55.1082 97.3161 54.8802C97.4961 54.6402 97.5861 54.2802 97.5861 53.8002C97.5861 52.8642 97.2441 52.3962 96.5601 52.3962ZM101.618 60.9822C101.618 60.0582 101.882 59.3442 102.41 58.8402C102.95 58.3242 103.64 58.0662 104.48 58.0662C105.32 58.0662 105.998 58.3242 106.514 58.8402C107.042 59.3442 107.306 60.0582 107.306 60.9822C107.306 61.9062 107.042 62.6262 106.514 63.1422C105.998 63.6582 105.32 63.9162 104.48 63.9162C103.628 63.9162 102.938 63.6582 102.41 63.1422C101.882 62.6262 101.618 61.9062 101.618 60.9822ZM104.462 59.5782C103.778 59.5782 103.436 60.0462 103.436 60.9822C103.436 61.9302 103.778 62.4042 104.462 62.4042C105.134 62.4042 105.47 61.9302 105.47 60.9822C105.47 60.0462 105.134 59.5782 104.462 59.5782Z" fill="white"/>
</g>
<defs>
<filter id="filter0_d_77908_1355" x="253.029" y="47.8662" width="43.8047" height="21.6436" filterUnits="userSpaceOnUse" color-interpolation-filters="sRGB">
<feFlood flood-opacity="0" result="BackgroundImageFix"/>
<feColorMatrix in="SourceAlpha" type="matrix" values="0 0 0 0 0 0 0 0 0 0 0 0 0 0 0 0 0 0 127 0" result="hardAlpha"/>
<feOffset dy="4"/>
<feGaussianBlur stdDeviation="2"/>
<feComposite in2="hardAlpha" operator="out"/>
<feColorMatrix type="matrix" values="0 0 0 0 0 0 0 0 0 0 0 0 0 0 0 0 0 0 0.25 0"/>
<feBlend mode="normal" in2="BackgroundImageFix" result="effect1_dropShadow_77908_1355"/>
<feBlend mode="normal" in="SourceGraphic" in2="effect1_dropShadow_77908_1355" result="shape"/>
</filter>
<filter id="filter1_d_77908_1355" x="299.842" y="240.453" width="44.877" height="21.6621" filterUnits="userSpaceOnUse" color-interpolation-filters="sRGB">
<feFlood flood-opacity="0" result="BackgroundImageFix"/>
<feColorMatrix in="SourceAlpha" type="matrix" values="0 0 0 0 0 0 0 0 0 0 0 0 0 0 0 0 0 0 127 0" result="hardAlpha"/>
<feOffset dy="4"/>
<feGaussianBlur stdDeviation="2"/>
<feComposite in2="hardAlpha" operator="out"/>
<feColorMatrix type="matrix" values="0 0 0 0 0 0 0 0 0 0 0 0 0 0 0 0 0 0 0.25 0"/>
<feBlend mode="normal" in2="BackgroundImageFix" result="effect1_dropShadow_77908_1355"/>
<feBlend mode="normal" in="SourceGraphic" in2="effect1_dropShadow_77908_1355" result="shape"/>
</filter>
<filter id="filter2_d_77908_1355" x="178.598" y="327.859" width="43.4355" height="21.626" filterUnits="userSpaceOnUse" color-interpolation-filters="sRGB">
<feFlood flood-opacity="0" result="BackgroundImageFix"/>
<feColorMatrix in="SourceAlpha" type="matrix" values="0 0 0 0 0 0 0 0 0 0 0 0 0 0 0 0 0 0 127 0" result="hardAlpha"/>
<feOffset dy="4"/>
<feGaussianBlur stdDeviation="2"/>
<feComposite in2="hardAlpha" operator="out"/>
<feColorMatrix type="matrix" values="0 0 0 0 0 0 0 0 0 0 0 0 0 0 0 0 0 0 0.25 0"/>
<feBlend mode="normal" in2="BackgroundImageFix" result="effect1_dropShadow_77908_1355"/>
<feBlend mode="normal" in="SourceGraphic" in2="effect1_dropShadow_77908_1355" result="shape"/>
</filter>
<filter id="filter3_d_77908_1355" x="91.9922" y="309.408" width="43.3652" height="21.6982" filterUnits="userSpaceOnUse" color-interpolation-filters="sRGB">
<feFlood flood-opacity="0" result="BackgroundImageFix"/>
<feColorMatrix in="SourceAlpha" type="matrix" values="0 0 0 0 0 0 0 0 0 0 0 0 0 0 0 0 0 0 127 0" result="hardAlpha"/>
<feOffset dy="4"/>
<feGaussianBlur stdDeviation="2"/>
<feComposite in2="hardAlpha" operator="out"/>
<feColorMatrix type="matrix" values="0 0 0 0 0 0 0 0 0 0 0 0 0 0 0 0 0 0 0.25 0"/>
<feBlend mode="normal" in2="BackgroundImageFix" result="effect1_dropShadow_77908_1355"/>
<feBlend mode="normal" in="SourceGraphic" in2="effect1_dropShadow_77908_1355" result="shape"/>
</filter>
<filter id="filter4_d_77908_1355" x="8.35938" y="205.903" width="43.7891" height="21.7158" filterUnits="userSpaceOnUse" color-interpolation-filters="sRGB">
<feFlood flood-opacity="0" result="BackgroundImageFix"/>
<feColorMatrix in="SourceAlpha" type="matrix" values="0 0 0 0 0 0 0 0 0 0 0 0 0 0 0 0 0 0 127 0" result="hardAlpha"/>
<feOffset dy="4"/>
<feGaussianBlur stdDeviation="2"/>
<feComposite in2="hardAlpha" operator="out"/>
<feColorMatrix type="matrix" values="0 0 0 0 0 0 0 0 0 0 0 0 0 0 0 0 0 0 0.25 0"/>
<feBlend mode="normal" in2="BackgroundImageFix" result="effect1_dropShadow_77908_1355"/>
<feBlend mode="normal" in="SourceGraphic" in2="effect1_dropShadow_77908_1355" result="shape"/>
</filter>
<filter id="filter5_d_77908_1355" x="66.3594" y="50.3262" width="44.9473" height="21.5898" filterUnits="userSpaceOnUse" color-interpolation-filters="sRGB">
<feFlood flood-opacity="0" result="BackgroundImageFix"/>
<feColorMatrix in="SourceAlpha" type="matrix" values="0 0 0 0 0 0 0 0 0 0 0 0 0 0 0 0 0 0 127 0" result="hardAlpha"/>
<feOffset dy="4"/>
<feGaussianBlur stdDeviation="2"/>
<feComposite in2="hardAlpha" operator="out"/>
<feColorMatrix type="matrix" values="0 0 0 0 0 0 0 0 0 0 0 0 0 0 0 0 0 0 0.25 0"/>
<feBlend mode="normal" in2="BackgroundImageFix" result="effect1_dropShadow_77908_1355"/>
<feBlend mode="normal" in="SourceGraphic" in2="effect1_dropShadow_77908_1355" result="shape"/>
</filter>
</defs>
</svg>
